<svg width="273" height="175" viewBox="0 0 273 175" fill="none" xmlns="http://www.w3.org/2000/svg">
<g clip-path="url(#clip0_2_101)">
<rect width="33.419" height="25.4008" rx="5" fill="#5368F0"/>
<path d="M56.3601 19H53.2181V8.81818H56.4993C57.487 8.81818 58.3322 9.02202 59.0349 9.42969C59.7375 9.83404 60.2761 10.4157 60.6506 11.1747C61.0251 11.9304 61.2124 12.8352 61.2124 13.8892C61.2124 14.9498 61.0235 15.8629 60.6456 16.6286C60.2678 17.3909 59.7176 17.9775 58.9951 18.3885C58.2725 18.7962 57.3942 19 56.3601 19ZM54.451 17.9062H56.2806C57.1224 17.9062 57.8201 17.7438 58.3736 17.419C58.9271 17.0942 59.3398 16.6319 59.6116 16.032C59.8833 15.4321 60.0192 14.7178 60.0192 13.8892C60.0192 13.0672 59.885 12.3596 59.6165 11.7663C59.3481 11.1697 58.947 10.7124 58.4134 10.3942C57.8798 10.0727 57.2153 9.91193 56.4198 9.91193H54.451V17.9062ZM66.3687 19.179C65.8848 19.179 65.4456 19.0878 65.0512 18.9055C64.6568 18.7199 64.3436 18.4531 64.1116 18.1051C63.8796 17.7538 63.7635 17.3295 63.7635 16.8324C63.7635 16.3949 63.8497 16.0402 64.0221 15.7685C64.1944 15.4934 64.4248 15.2779 64.7131 15.1222C65.0015 14.9664 65.3197 14.8504 65.6677 14.7741C66.019 14.6946 66.372 14.6316 66.7266 14.5852C67.1906 14.5256 67.5668 14.4808 67.8552 14.451C68.1468 14.4179 68.359 14.3632 68.4915 14.2869C68.6274 14.2107 68.6954 14.0781 68.6954 13.8892V13.8494C68.6954 13.3589 68.5611 12.9777 68.2927 12.706C68.0275 12.4342 67.6248 12.2983 67.0846 12.2983C66.5244 12.2983 66.0853 12.4209 65.7671 12.6662C65.4489 12.9115 65.2252 13.1733 65.0959 13.4517L63.9823 13.054C64.1812 12.59 64.4463 12.2287 64.7778 11.9702C65.1125 11.7083 65.4771 11.526 65.8715 11.4233C66.2692 11.3172 66.6603 11.2642 67.0448 11.2642C67.2901 11.2642 67.5718 11.294 67.89 11.3537C68.2115 11.41 68.5214 11.5277 68.8197 11.7067C69.1213 11.8857 69.3715 12.1558 69.5704 12.517C69.7692 12.8783 69.8687 13.3622 69.8687 13.9688V19H68.6954V17.9659H68.6357C68.5562 18.1316 68.4236 18.3089 68.238 18.4979C68.0524 18.6868 67.8055 18.8475 67.4972 18.9801C67.189 19.1127 66.8128 19.179 66.3687 19.179ZM66.5476 18.125C67.0117 18.125 67.4028 18.0339 67.7209 17.8516C68.0424 17.6693 68.2844 17.4339 68.4468 17.1456C68.6125 16.8572 68.6954 16.554 68.6954 16.2358V15.1619C68.6456 15.2216 68.5363 15.2763 68.3672 15.326C68.2015 15.3724 68.0093 15.4138 67.7905 15.4503C67.5751 15.4834 67.3646 15.5133 67.1591 15.5398C66.957 15.563 66.7929 15.5829 66.667 15.5994C66.362 15.6392 66.077 15.7038 65.8118 15.7933C65.55 15.8795 65.3379 16.0104 65.1755 16.1861C65.0164 16.3584 64.9368 16.5937 64.9368 16.892C64.9368 17.2997 65.0876 17.608 65.3893 17.8168C65.6942 18.0223 66.0803 18.125 66.5476 18.125ZM78.4193 13.0739L77.3653 13.3722C77.299 13.1965 77.2012 13.0258 77.072 12.8601C76.946 12.6911 76.7737 12.5518 76.5549 12.4425C76.3362 12.3331 76.0561 12.2784 75.7147 12.2784C75.2474 12.2784 74.8579 12.3861 74.5464 12.6016C74.2382 12.8137 74.084 13.0838 74.084 13.4119C74.084 13.7036 74.1901 13.9339 74.4022 14.103C74.6143 14.272 74.9458 14.4129 75.3965 14.5256L76.5301 14.804C77.2128 14.9697 77.7216 15.2232 78.0563 15.5646C78.3911 15.9027 78.5585 16.3385 78.5585 16.8722C78.5585 17.3097 78.4325 17.7008 78.1806 18.0455C77.932 18.3902 77.584 18.6619 77.1366 18.8608C76.6892 19.0597 76.1688 19.1591 75.5755 19.1591C74.7966 19.1591 74.152 18.9901 73.6416 18.652C73.1311 18.3139 72.808 17.8201 72.6721 17.1705L73.7857 16.892C73.8918 17.303 74.0923 17.6113 74.3873 17.8168C74.6856 18.0223 75.075 18.125 75.5556 18.125C76.1025 18.125 76.5367 18.009 76.8582 17.777C77.183 17.5417 77.3454 17.2599 77.3454 16.9318C77.3454 16.6667 77.2526 16.4446 77.067 16.2656C76.8814 16.0833 76.5963 15.9474 76.2119 15.858L74.9392 15.5597C74.2398 15.3939 73.7261 15.1371 73.398 14.7891C73.0731 14.4377 72.9107 13.9986 72.9107 13.4716C72.9107 13.0407 73.0317 12.6596 73.2737 12.3281C73.5189 11.9967 73.852 11.7365 74.273 11.5476C74.6972 11.3587 75.1778 11.2642 75.7147 11.2642C76.4704 11.2642 77.0637 11.4299 77.4945 11.7614C77.9287 12.0928 78.237 12.5303 78.4193 13.0739ZM82.4979 14.4062V19H81.3246V8.81818H82.4979V12.5568H82.5974C82.7763 12.1624 83.0448 11.8492 83.4028 11.6172C83.764 11.3819 84.2446 11.2642 84.8445 11.2642C85.3649 11.2642 85.8206 11.3686 86.2117 11.5774C86.6028 11.7829 86.9061 12.0994 87.1215 12.527C87.3403 12.9512 87.4496 13.4915 87.4496 14.1477V19H86.2763V14.2273C86.2763 13.6207 86.1189 13.1518 85.804 12.8203C85.4925 12.4856 85.0599 12.3182 84.5064 12.3182C84.122 12.3182 83.7773 12.3994 83.4724 12.5618C83.1707 12.7242 82.9321 12.9612 82.7564 13.2727C82.5841 13.5843 82.4979 13.9621 82.4979 14.4062ZM96.9257 8.81818V19H95.6927V8.81818H96.9257ZM101.412 14.4062V19H100.239V11.3636H101.372V12.5568H101.472C101.651 12.169 101.922 11.8575 102.287 11.6222C102.652 11.3835 103.122 11.2642 103.699 11.2642C104.216 11.2642 104.668 11.3703 105.056 11.5824C105.444 11.7912 105.746 12.1094 105.961 12.5369C106.176 12.9612 106.284 13.4981 106.284 14.1477V19H105.111V14.2273C105.111 13.6274 104.955 13.16 104.644 12.8253C104.332 12.4872 103.904 12.3182 103.361 12.3182C102.986 12.3182 102.652 12.3994 102.357 12.5618C102.065 12.7242 101.835 12.9612 101.666 13.2727C101.497 13.5843 101.412 13.9621 101.412 14.4062ZM112.53 19.1591C111.815 19.1591 111.198 18.9901 110.681 18.652C110.164 18.3139 109.766 17.8482 109.488 17.255C109.209 16.6617 109.07 15.9839 109.07 15.2216C109.07 14.446 109.213 13.7616 109.498 13.1683C109.786 12.5717 110.187 12.1061 110.701 11.7713C111.218 11.4332 111.821 11.2642 112.511 11.2642C113.047 11.2642 113.531 11.3636 113.962 11.5625C114.393 11.7614 114.746 12.0398 115.021 12.3977C115.296 12.7557 115.467 13.1733 115.533 13.6506H114.36C114.27 13.3026 114.072 12.9943 113.763 12.7259C113.458 12.4541 113.047 12.3182 112.53 12.3182C112.073 12.3182 111.672 12.4375 111.327 12.6761C110.986 12.9115 110.719 13.2446 110.527 13.6754C110.338 14.103 110.243 14.6051 110.243 15.1818C110.243 15.7718 110.336 16.2855 110.522 16.723C110.711 17.1605 110.976 17.5002 111.317 17.7422C111.662 17.9841 112.066 18.1051 112.53 18.1051C112.835 18.1051 113.112 18.0521 113.361 17.946C113.609 17.84 113.82 17.6875 113.992 17.4886C114.164 17.2898 114.287 17.0511 114.36 16.7727H115.533C115.467 17.2235 115.303 17.6295 115.041 17.9908C114.783 18.3487 114.44 18.6338 114.012 18.8459C113.588 19.0547 113.094 19.1591 112.53 19.1591ZM123.061 15.8778V11.3636H124.234V19H123.061V17.7074H122.981C122.802 18.0952 122.524 18.425 122.146 18.6967C121.768 18.9652 121.291 19.0994 120.714 19.0994C120.237 19.0994 119.813 18.995 119.442 18.7862C119.07 18.5741 118.779 18.2559 118.567 17.8317C118.355 17.4041 118.248 16.8655 118.248 16.2159V11.3636H119.422V16.1364C119.422 16.6932 119.578 17.1373 119.889 17.4688C120.204 17.8002 120.605 17.9659 121.092 17.9659C121.384 17.9659 121.681 17.8913 121.982 17.7422C122.287 17.593 122.542 17.3643 122.748 17.0561C122.957 16.7479 123.061 16.3551 123.061 15.8778ZM127.542 19V8.81818H128.716V12.5767H128.815C128.901 12.4441 129.021 12.2751 129.173 12.0696C129.329 11.8608 129.551 11.6752 129.839 11.5128C130.131 11.3471 130.525 11.2642 131.022 11.2642C131.665 11.2642 132.232 11.425 132.723 11.7464C133.213 12.0679 133.596 12.5237 133.871 13.1136C134.146 13.7036 134.284 14.3996 134.284 15.2017C134.284 16.0104 134.146 16.7114 133.871 17.3047C133.596 17.8946 133.215 18.352 132.728 18.6768C132.24 18.9983 131.679 19.1591 131.042 19.1591C130.552 19.1591 130.159 19.0779 129.864 18.9155C129.569 18.7498 129.342 18.5625 129.183 18.3537C129.024 18.1416 128.901 17.9659 128.815 17.8267H128.676V19H127.542ZM128.696 15.1818C128.696 15.7585 128.78 16.2673 128.949 16.7081C129.118 17.1456 129.365 17.4886 129.69 17.7372C130.015 17.9825 130.413 18.1051 130.883 18.1051C131.374 18.1051 131.783 17.9759 132.111 17.7173C132.443 17.4555 132.691 17.1042 132.857 16.6634C133.026 16.2192 133.11 15.7254 133.11 15.1818C133.11 14.6449 133.028 14.161 132.862 13.7301C132.7 13.2959 132.453 12.9529 132.121 12.701C131.793 12.4458 131.38 12.3182 130.883 12.3182C130.406 12.3182 130.005 12.4392 129.68 12.6811C129.355 12.9197 129.11 13.2545 128.944 13.6854C128.779 14.1129 128.696 14.6117 128.696 15.1818ZM139.326 19.179C138.842 19.179 138.403 19.0878 138.008 18.9055C137.614 18.7199 137.301 18.4531 137.069 18.1051C136.837 17.7538 136.721 17.3295 136.721 16.8324C136.721 16.3949 136.807 16.0402 136.979 15.7685C137.151 15.4934 137.382 15.2779 137.67 15.1222C137.959 14.9664 138.277 14.8504 138.625 14.7741C138.976 14.6946 139.329 14.6316 139.684 14.5852C140.148 14.5256 140.524 14.4808 140.812 14.451C141.104 14.4179 141.316 14.3632 141.449 14.2869C141.584 14.2107 141.652 14.0781 141.652 13.8892V13.8494C141.652 13.3589 141.518 12.9777 141.25 12.706C140.985 12.4342 140.582 12.2983 140.042 12.2983C139.481 12.2983 139.042 12.4209 138.724 12.6662C138.406 12.9115 138.182 13.1733 138.053 13.4517L136.939 13.054C137.138 12.59 137.403 12.2287 137.735 11.9702C138.07 11.7083 138.434 11.526 138.829 11.4233C139.226 11.3172 139.617 11.2642 140.002 11.2642C140.247 11.2642 140.529 11.294 140.847 11.3537C141.168 11.41 141.478 11.5277 141.777 11.7067C142.078 11.8857 142.329 12.1558 142.527 12.517C142.726 12.8783 142.826 13.3622 142.826 13.9688V19H141.652V17.9659H141.593C141.513 18.1316 141.381 18.3089 141.195 18.4979C141.009 18.6868 140.762 18.8475 140.454 18.9801C140.146 19.1127 139.77 19.179 139.326 19.179ZM139.505 18.125C139.969 18.125 140.36 18.0339 140.678 17.8516C140.999 17.6693 141.241 17.4339 141.404 17.1456C141.57 16.8572 141.652 16.554 141.652 16.2358V15.1619C141.603 15.2216 141.493 15.2763 141.324 15.326C141.159 15.3724 140.966 15.4138 140.748 15.4503C140.532 15.4834 140.322 15.5133 140.116 15.5398C139.914 15.563 139.75 15.5829 139.624 15.5994C139.319 15.6392 139.034 15.7038 138.769 15.7933C138.507 15.8795 138.295 16.0104 138.133 16.1861C137.973 16.3584 137.894 16.5937 137.894 16.892C137.894 17.2997 138.045 17.608 138.346 17.8168C138.651 18.0223 139.037 18.125 139.505 18.125ZM149.288 11.3636V12.358H145.331V11.3636H149.288ZM146.484 9.53409H147.658V16.8125C147.658 17.1439 147.706 17.3925 147.802 17.5582C147.901 17.7206 148.027 17.83 148.18 17.8864C148.335 17.9394 148.499 17.9659 148.672 17.9659C148.801 17.9659 148.907 17.9593 148.99 17.946C149.073 17.9295 149.139 17.9162 149.189 17.9062L149.427 18.9602C149.348 18.9901 149.237 19.0199 149.094 19.0497C148.952 19.0829 148.771 19.0994 148.552 19.0994C148.221 19.0994 147.896 19.0282 147.578 18.8857C147.263 18.7431 147.001 18.526 146.792 18.2344C146.587 17.9427 146.484 17.5748 146.484 17.1307V9.53409ZM155.073 19.1591C154.384 19.1591 153.779 18.995 153.259 18.6669C152.742 18.3388 152.337 17.8797 152.046 17.2898C151.757 16.6998 151.613 16.0104 151.613 15.2216C151.613 14.4261 151.757 13.7318 152.046 13.1385C152.337 12.5452 152.742 12.0845 153.259 11.7564C153.779 11.4283 154.384 11.2642 155.073 11.2642C155.763 11.2642 156.366 11.4283 156.883 11.7564C157.403 12.0845 157.808 12.5452 158.096 13.1385C158.388 13.7318 158.534 14.4261 158.534 15.2216C158.534 16.0104 158.388 16.6998 158.096 17.2898C157.808 17.8797 157.403 18.3388 156.883 18.6669C156.366 18.995 155.763 19.1591 155.073 19.1591ZM155.073 18.1051C155.597 18.1051 156.028 17.9709 156.366 17.7024C156.704 17.4339 156.954 17.081 157.117 16.6435C157.279 16.206 157.36 15.732 157.36 15.2216C157.36 14.7112 157.279 14.2356 157.117 13.7947C156.954 13.3539 156.704 12.9976 156.366 12.7259C156.028 12.4541 155.597 12.3182 155.073 12.3182C154.55 12.3182 154.119 12.4541 153.781 12.7259C153.443 12.9976 153.192 13.3539 153.03 13.7947C152.868 14.2356 152.786 14.7112 152.786 15.2216C152.786 15.732 152.868 16.206 153.03 16.6435C153.192 17.081 153.443 17.4339 153.781 17.7024C154.119 17.9709 154.55 18.1051 155.073 18.1051ZM161.325 19V11.3636H162.458V12.517H162.538C162.677 12.1392 162.929 11.8326 163.293 11.5973C163.658 11.362 164.069 11.2443 164.526 11.2443C164.613 11.2443 164.72 11.246 164.849 11.2493C164.979 11.2526 165.077 11.2576 165.143 11.2642V12.4574C165.103 12.4474 165.012 12.4325 164.869 12.4126C164.73 12.3894 164.583 12.3778 164.427 12.3778C164.056 12.3778 163.724 12.4557 163.433 12.6115C163.144 12.764 162.916 12.9761 162.747 13.2479C162.581 13.5163 162.498 13.8229 162.498 14.1676V19H161.325Z" fill="#77838F"/>
</g>
<g clip-path="url(#clip1_2_101)">
<rect y="47.9793" width="33.419" height="25.4008" rx="5" fill="#9D57D5"/>
</g>
<g clip-path="url(#clip2_2_101)">
<rect y="95.9586" width="33.419" height="25.4008" rx="5" fill="#FEAB00"/>
<path d="M56.3601 114.959H53.2181V104.777H56.4993C57.487 104.777 58.3322 104.981 59.0348 105.388C59.7375 105.793 60.2761 106.374 60.6506 107.133C61.0251 107.889 61.2124 108.794 61.2124 109.848C61.2124 110.908 61.0235 111.822 60.6456 112.587C60.2678 113.349 59.7176 113.936 58.9951 114.347C58.2725 114.755 57.3942 114.959 56.3601 114.959ZM54.451 113.865H56.2806C57.1224 113.865 57.8201 113.702 58.3736 113.378C58.9271 113.053 59.3397 112.59 59.6115 111.991C59.8833 111.391 60.0192 110.676 60.0192 109.848C60.0192 109.026 59.885 108.318 59.6165 107.725C59.348 107.128 58.947 106.671 58.4134 106.353C57.8798 106.031 57.2152 105.871 56.4198 105.871H54.451V113.865ZM72.4737 107.959H71.2408C71.1679 107.604 71.0403 107.292 70.858 107.024C70.679 106.755 70.4602 106.53 70.2017 106.348C69.9465 106.162 69.6631 106.023 69.3516 105.93C69.04 105.837 68.7152 105.791 68.3772 105.791C67.7607 105.791 67.2022 105.947 66.7017 106.258C66.2046 106.57 65.8085 107.029 65.5135 107.635C65.2218 108.242 65.076 108.986 65.076 109.868C65.076 110.749 65.2218 111.493 65.5135 112.1C65.8085 112.706 66.2046 113.166 66.7017 113.477C67.2022 113.789 67.7607 113.944 68.3772 113.944C68.7152 113.944 69.04 113.898 69.3516 113.805C69.6631 113.712 69.9465 113.575 70.2017 113.393C70.4602 113.207 70.679 112.98 70.858 112.711C71.0403 112.44 71.1679 112.128 71.2408 111.777H72.4737C72.3809 112.297 72.2119 112.763 71.9666 113.174C71.7214 113.585 71.4165 113.934 71.0519 114.223C70.6873 114.508 70.278 114.725 69.8239 114.874C69.3731 115.023 68.8909 115.098 68.3772 115.098C67.5088 115.098 66.7365 114.886 66.0604 114.461C65.3843 114.037 64.8523 113.434 64.4645 112.652C64.0767 111.87 63.8828 110.942 63.8828 109.868C63.8828 108.794 64.0767 107.866 64.4645 107.084C64.8523 106.301 65.3843 105.698 66.0604 105.274C66.7365 104.85 67.5088 104.638 68.3772 104.638C68.8909 104.638 69.3731 104.712 69.8239 104.861C70.278 105.01 70.6873 105.229 71.0519 105.518C71.4165 105.803 71.7214 106.151 71.9666 106.562C72.2119 106.969 72.3809 107.435 72.4737 107.959ZM82.4263 107.959C82.317 107.624 82.1728 107.324 81.9938 107.059C81.8181 106.79 81.6077 106.562 81.3624 106.373C81.1205 106.184 80.8454 106.04 80.5371 105.94C80.2289 105.841 79.8908 105.791 79.5229 105.791C78.9197 105.791 78.3712 105.947 77.8773 106.258C77.3835 106.57 76.9907 107.029 76.6991 107.635C76.4074 108.242 76.2616 108.986 76.2616 109.868C76.2616 110.749 76.4091 111.493 76.704 112.1C76.999 112.706 77.3984 113.166 77.9022 113.477C78.406 113.789 78.9727 113.944 79.6025 113.944C80.1858 113.944 80.6995 113.82 81.1437 113.572C81.5911 113.32 81.9391 112.965 82.1877 112.508C82.4396 112.047 82.5655 111.505 82.5655 110.882L82.9434 110.961H79.8809V109.868H83.7587V110.961C83.7587 111.8 83.5797 112.529 83.2218 113.149C82.8672 113.769 82.3766 114.249 81.7502 114.591C81.1271 114.929 80.4112 115.098 79.6025 115.098C78.701 115.098 77.9088 114.886 77.2261 114.461C76.5466 114.037 76.0163 113.434 75.6351 112.652C75.2573 111.87 75.0684 110.942 75.0684 109.868C75.0684 109.062 75.1761 108.338 75.3915 107.695C75.6103 107.049 75.9185 106.499 76.3163 106.045C76.714 105.59 77.1846 105.242 77.7282 105.001C78.2717 104.759 78.87 104.638 79.5229 104.638C80.0599 104.638 80.5603 104.719 81.0243 104.881C81.4917 105.04 81.9076 105.267 82.2722 105.562C82.6401 105.854 82.9467 106.204 83.192 106.611C83.4372 107.016 83.6063 107.465 83.6991 107.959H82.4263Z" fill="#77838F"/>
</g>
<g clip-path="url(#clip3_2_101)">
<rect y="143.938" width="33.419" height="25.4008" rx="5" fill="#FF3131"/>
</g>
<path d="M60.1903 150.343H58.9573C58.8844 149.988 58.7568 149.677 58.5745 149.408C58.3955 149.14 58.1768 148.914 57.9182 148.732C57.663 148.546 57.3797 148.407 57.0681 148.314C56.7566 148.222 56.4317 148.175 56.0937 148.175C55.4772 148.175 54.9187 148.331 54.4182 148.643C53.9211 148.954 53.525 149.413 53.23 150.02C52.9384 150.626 52.7925 151.37 52.7925 152.252C52.7925 153.134 52.9384 153.878 53.23 154.484C53.525 155.091 53.9211 155.55 54.4182 155.861C54.9187 156.173 55.4772 156.329 56.0937 156.329C56.4317 156.329 56.7566 156.282 57.0681 156.189C57.3797 156.097 57.663 155.959 57.9182 155.777C58.1768 155.591 58.3955 155.364 58.5745 155.096C58.7568 154.824 58.8844 154.512 58.9573 154.161H60.1903C60.0975 154.681 59.9284 155.147 59.6832 155.558C59.4379 155.969 59.133 156.319 58.7684 156.607C58.4038 156.892 57.9945 157.109 57.5404 157.258C57.0897 157.408 56.6074 157.482 56.0937 157.482C55.2253 157.482 54.4531 157.27 53.7769 156.846C53.1008 156.421 52.5688 155.818 52.181 155.036C51.7932 154.254 51.5994 153.326 51.5994 152.252C51.5994 151.178 51.7932 150.25 52.181 149.468C52.5688 148.686 53.1008 148.082 53.7769 147.658C54.4531 147.234 55.2253 147.022 56.0937 147.022C56.6074 147.022 57.0897 147.096 57.5404 147.246C57.9945 147.395 58.4038 147.613 58.7684 147.902C59.133 148.187 59.4379 148.535 59.6832 148.946C59.9284 149.354 60.0975 149.819 60.1903 150.343ZM63.0235 157.343V149.707H64.1571V150.86H64.2366C64.3758 150.482 64.6277 150.176 64.9923 149.94C65.3569 149.705 65.7679 149.587 66.2252 149.587C66.3114 149.587 66.4191 149.589 66.5484 149.592C66.6777 149.595 66.7754 149.6 66.8417 149.607V150.8C66.8019 150.79 66.7108 150.775 66.5683 150.756C66.4291 150.732 66.2816 150.721 66.1258 150.721C65.7546 150.721 65.4232 150.799 65.1315 150.954C64.8431 151.107 64.6144 151.319 64.4454 151.591C64.2797 151.859 64.1968 152.166 64.1968 152.511V157.343H63.0235ZM72.1024 157.502C71.413 157.502 70.8081 157.338 70.2877 157.01C69.7707 156.682 69.3663 156.223 69.0747 155.633C68.7863 155.043 68.6421 154.353 68.6421 153.564C68.6421 152.769 68.7863 152.075 69.0747 151.481C69.3663 150.888 69.7707 150.427 70.2877 150.099C70.8081 149.771 71.413 149.607 72.1024 149.607C72.7918 149.607 73.395 149.771 73.912 150.099C74.4324 150.427 74.8368 150.888 75.1251 151.481C75.4168 152.075 75.5626 152.769 75.5626 153.564C75.5626 154.353 75.4168 155.043 75.1251 155.633C74.8368 156.223 74.4324 156.682 73.912 157.01C73.395 157.338 72.7918 157.502 72.1024 157.502ZM72.1024 156.448C72.626 156.448 73.0569 156.314 73.395 156.045C73.7331 155.777 73.9833 155.424 74.1457 154.986C74.3081 154.549 74.3893 154.075 74.3893 153.564C74.3893 153.054 74.3081 152.578 74.1457 152.138C73.9833 151.697 73.7331 151.341 73.395 151.069C73.0569 150.797 72.626 150.661 72.1024 150.661C71.5787 150.661 71.1478 150.797 70.8098 151.069C70.4717 151.341 70.2215 151.697 70.0591 152.138C69.8966 152.578 69.8154 153.054 69.8154 153.564C69.8154 154.075 69.8966 154.549 70.0591 154.986C70.2215 155.424 70.4717 155.777 70.8098 156.045C71.1478 156.314 71.5787 156.448 72.1024 156.448ZM79.824 157.343L77.4973 149.707H78.7302L80.3808 155.553H80.4603L82.091 149.707H83.3439L84.9546 155.533H85.0342L86.6848 149.707H87.9177L85.591 157.343H84.4376L82.7671 151.476H82.6478L80.9774 157.343H79.824ZM93.0926 157.502C92.4562 157.502 91.8945 157.341 91.4072 157.02C90.92 156.695 90.5389 156.238 90.2638 155.648C89.9887 155.054 89.8511 154.353 89.8511 153.545C89.8511 152.743 89.9887 152.046 90.2638 151.457C90.5389 150.867 90.9217 150.411 91.4122 150.089C91.9027 149.768 92.4695 149.607 93.1125 149.607C93.6097 149.607 94.0024 149.69 94.2908 149.856C94.5824 150.018 94.8045 150.204 94.957 150.412C95.1127 150.618 95.2337 150.787 95.3199 150.92H95.4193V147.161H96.5926V157.343H95.4591V156.17H95.3199C95.2337 156.309 95.1111 156.484 94.952 156.697C94.7929 156.905 94.5659 157.093 94.2709 157.258C93.9759 157.421 93.5831 157.502 93.0926 157.502ZM93.2517 156.448C93.7223 156.448 94.1201 156.325 94.4449 156.08C94.7697 155.832 95.0166 155.488 95.1856 155.051C95.3547 154.61 95.4392 154.101 95.4392 153.525C95.4392 152.955 95.3563 152.456 95.1906 152.028C95.0249 151.597 94.7796 151.263 94.4548 151.024C94.13 150.782 93.729 150.661 93.2517 150.661C92.7545 150.661 92.3402 150.789 92.0088 151.044C91.6807 151.296 91.4338 151.639 91.268 152.073C91.1056 152.504 91.0244 152.988 91.0244 153.525C91.0244 154.068 91.1073 154.562 91.273 155.006C91.442 155.447 91.6906 155.798 92.0187 156.06C92.3502 156.319 92.7612 156.448 93.2517 156.448ZM113.075 147.161V157.343H111.882L106.333 149.349H106.234V157.343H105.001V147.161H106.194L111.762 155.175H111.862V147.161H113.075ZM119.485 157.502C118.796 157.502 118.191 157.338 117.671 157.01C117.154 156.682 116.749 156.223 116.457 155.633C116.169 155.043 116.025 154.353 116.025 153.564C116.025 152.769 116.169 152.075 116.457 151.481C116.749 150.888 117.154 150.427 117.671 150.099C118.191 149.771 118.796 149.607 119.485 149.607C120.175 149.607 120.778 149.771 121.295 150.099C121.815 150.427 122.22 150.888 122.508 151.481C122.8 152.075 122.945 152.769 122.945 153.564C122.945 154.353 122.8 155.043 122.508 155.633C122.22 156.223 121.815 156.682 121.295 157.01C120.778 157.338 120.175 157.502 119.485 157.502ZM119.485 156.448C120.009 156.448 120.44 156.314 120.778 156.045C121.116 155.777 121.366 155.424 121.529 154.986C121.691 154.549 121.772 154.075 121.772 153.564C121.772 153.054 121.691 152.578 121.529 152.138C121.366 151.697 121.116 151.341 120.778 151.069C120.44 150.797 120.009 150.661 119.485 150.661C118.962 150.661 118.531 150.797 118.193 151.069C117.855 151.341 117.604 151.697 117.442 152.138C117.279 152.578 117.198 153.054 117.198 153.564C117.198 154.075 117.279 154.549 117.442 154.986C117.604 155.424 117.855 155.777 118.193 156.045C118.531 156.314 118.962 156.448 119.485 156.448ZM128.62 157.502C127.984 157.502 127.422 157.341 126.935 157.02C126.447 156.695 126.066 156.238 125.791 155.648C125.516 155.054 125.378 154.353 125.378 153.545C125.378 152.743 125.516 152.046 125.791 151.457C126.066 150.867 126.449 150.411 126.94 150.089C127.43 149.768 127.997 149.607 128.64 149.607C129.137 149.607 129.53 149.69 129.818 149.856C130.11 150.018 130.332 150.204 130.484 150.412C130.64 150.618 130.761 150.787 130.847 150.92H130.947V147.161H132.12V157.343H130.986V156.17H130.847C130.761 156.309 130.638 156.484 130.479 156.697C130.32 156.905 130.093 157.093 129.798 157.258C129.503 157.421 129.11 157.502 128.62 157.502ZM128.779 156.448C129.25 156.448 129.647 156.325 129.972 156.08C130.297 155.832 130.544 155.488 130.713 155.051C130.882 154.61 130.967 154.101 130.967 153.525C130.967 152.955 130.884 152.456 130.718 152.028C130.552 151.597 130.307 151.263 129.982 151.024C129.657 150.782 129.256 150.661 128.779 150.661C128.282 150.661 127.868 150.789 127.536 151.044C127.208 151.296 126.961 151.639 126.795 152.073C126.633 152.504 126.552 152.988 126.552 153.525C126.552 154.068 126.635 154.562 126.8 155.006C126.969 155.447 127.218 155.798 127.546 156.06C127.878 156.319 128.289 156.448 128.779 156.448ZM138.633 157.502C137.898 157.502 137.263 157.34 136.729 157.015C136.199 156.687 135.79 156.229 135.501 155.643C135.216 155.053 135.074 154.367 135.074 153.584C135.074 152.802 135.216 152.113 135.501 151.516C135.79 150.916 136.191 150.449 136.704 150.114C137.222 149.776 137.825 149.607 138.514 149.607C138.912 149.607 139.305 149.673 139.692 149.806C140.08 149.939 140.433 150.154 140.751 150.452C141.07 150.747 141.323 151.138 141.512 151.626C141.701 152.113 141.795 152.713 141.795 153.425V153.922H135.909V152.908H140.602C140.602 152.477 140.516 152.093 140.344 151.755C140.175 151.417 139.933 151.15 139.618 150.954C139.306 150.759 138.938 150.661 138.514 150.661C138.047 150.661 137.642 150.777 137.301 151.009C136.963 151.238 136.703 151.536 136.521 151.904C136.338 152.272 136.247 152.666 136.247 153.087V153.763C136.247 154.34 136.347 154.829 136.545 155.23C136.748 155.628 137.028 155.931 137.386 156.14C137.744 156.345 138.159 156.448 138.633 156.448C138.942 156.448 139.22 156.405 139.469 156.319C139.721 156.229 139.938 156.097 140.12 155.921C140.302 155.742 140.443 155.52 140.543 155.255L141.676 155.573C141.557 155.957 141.356 156.296 141.074 156.587C140.793 156.876 140.445 157.101 140.03 157.263C139.616 157.422 139.15 157.502 138.633 157.502Z" fill="#77838F"/>
<defs>
<clipPath id="clip0_2_101">
<rect width="272.922" height="25.4008" fill="white"/>
</clipPath>
<clipPath id="clip1_2_101">
<rect width="187.518" height="25.4008" fill="white" transform="translate(0 47.9793)"/>
</clipPath>
<clipPath id="clip2_2_101">
<rect width="159.669" height="25.4008" fill="white" transform="translate(0 95.9586)"/>
</clipPath>
<clipPath id="clip3_2_101">
<rect width="155.955" height="25.4008" fill="white" transform="translate(0 143.938)"/>
</clipPath>
</defs>
</svg>
