<svg width="265" height="249" viewBox="0 0 265 249" fill="none" xmlns="http://www.w3.org/2000/svg">
<path d="M132.287 124.57L132.287 1C204.794 1 263.573 56.3244 263.573 124.57C263.573 149.295 255.693 173.452 240.951 193.917L132.287 124.57Z" fill="#FEAB00" stroke="white"/>
<path d="M132.287 124.57L240.951 193.917C213.676 231.78 166.409 252.362 118.092 247.417L132.287 124.57Z" fill="#FF3131" stroke="white"/>
<path d="M132.287 124.57L118.092 247.417C89.5626 244.496 62.8355 232.858 42.001 214.282L132.287 124.57Z" fill="#9D57D5" stroke="white"/>
<path d="M132.287 124.57L42.0011 214.282C-10.639 167.349 -12.89 89.1374 36.9734 39.5911C61.7671 14.9551 96.2336 1 132.287 1V124.57Z" fill="#5368F0" stroke="white"/>
</svg>
